<mxfile host="app.diagrams.net" modified="2021-12-23T18:08:45.708Z" agent="5.0 (Windows NT 10.0; Win64; x64) AppleWebKit/537.36 (KHTML, like Gecko) Chrome/96.0.4664.110 Safari/537.36" etag="W7R8ebWouUoYtXSnH-lG" version="16.0.0" type="github">
  <diagram id="bcZGq8niX8jsSqBgnsz0" name="Page-1">
    <mxGraphModel dx="1038" dy="579" grid="1" gridSize="10" guides="1" tooltips="1" connect="1" arrows="1" fold="1" page="1" pageScale="1" pageWidth="1100" pageHeight="850" math="0" shadow="0">
      <root>
        <mxCell id="0" />
        <mxCell id="1" parent="0" />
        <mxCell id="pe7kV6N1swRoLj8WlCbN-1" value="&lt;font face=&quot;Work Sans&quot; data-font-src=&quot;https://fonts.googleapis.com/css?family=Work+Sans&quot; style=&quot;line-height: 0.3&quot;&gt;&lt;b style=&quot;font-size: 17px&quot;&gt;uID Generator&lt;/b&gt;&lt;br&gt;&lt;font style=&quot;font-size: 11px&quot;&gt;[ 13/16 Digit Alpha-Numeric Unique ID ]&lt;/font&gt;&lt;br&gt;&lt;/font&gt;" style="rounded=1;whiteSpace=wrap;html=1;fontSize=16;fillColor=#dae8fc;strokeColor=#6c8ebf;" vertex="1" parent="1">
          <mxGeometry x="610" y="150" width="240" height="70" as="geometry" />
        </mxCell>
        <mxCell id="pe7kV6N1swRoLj8WlCbN-2" value="&lt;font face=&quot;Work Sans&quot; data-font-src=&quot;https://fonts.googleapis.com/css?family=Work+Sans&quot; style=&quot;line-height: 0.3&quot;&gt;&lt;b style=&quot;font-size: 17px&quot;&gt;Credential Processor&lt;/b&gt;&lt;br&gt;&lt;font style=&quot;font-size: 11px&quot;&gt;[ Check Email Format, Password Strength, Check if Email Exists, Prepare Payload ]&lt;/font&gt;&lt;br&gt;&lt;/font&gt;" style="rounded=1;whiteSpace=wrap;html=1;fontSize=16;fillColor=#fff2cc;strokeColor=#d6b656;" vertex="1" parent="1">
          <mxGeometry x="260" y="380" width="590" height="70" as="geometry" />
        </mxCell>
      </root>
    </mxGraphModel>
  </diagram>
</mxfile>
